<svg xmlns="http://www.w3.org/2000/svg" id="_27_Icon_alert-triangle" width="140" height="121" viewBox="0 0 140 121">
    <defs>
        <clipPath id="clip-path">
            <path id="_Icon_Сolor" d="M118.82 121H21.174A21.309 21.309 0 0 1 2.5 110.4a18.949 18.949 0 0 1 .292-19.316l48.82-81a21.792 21.792 0 0 1 36.764 0l48.826 81a18.949 18.949 0 0 1 .298 19.316 21.341 21.341 0 0 1-18.68 10.6zM70 12.976a8.6 8.6 0 0 0-7.483 3.7L13.694 97.667a6.182 6.182 0 0 0-.109 6.477 8.483 8.483 0 0 0 7.589 4.121h97.646a8.483 8.483 0 0 0 7.589-4.121 6.182 6.182 0 0 0-.109-6.477L77.48 16.673A8.6 8.6 0 0 0 70 12.976zm0 82.552a6.371 6.371 0 1 1 6.363-6.368A6.373 6.373 0 0 1 70 95.529zm0-19.109a6.373 6.373 0 0 1-6.363-6.368V44.58a6.363 6.363 0 1 1 12.726 0v25.472A6.373 6.373 0 0 1 70 76.419z" class="cls-1"/>
        </clipPath>
        <style>
            .cls-1{fill:#b8c5c8}
        </style>
    </defs>
    <g id="Group_3">
        <path id="_Icon_Сolor-2" d="M118.82 121H21.174A21.309 21.309 0 0 1 2.5 110.4a18.949 18.949 0 0 1 .292-19.316l48.82-81a21.792 21.792 0 0 1 36.764 0l48.826 81a18.949 18.949 0 0 1 .298 19.316 21.341 21.341 0 0 1-18.68 10.6zM70 12.976a8.6 8.6 0 0 0-7.483 3.7L13.694 97.667a6.182 6.182 0 0 0-.109 6.477 8.483 8.483 0 0 0 7.589 4.121h97.646a8.483 8.483 0 0 0 7.589-4.121 6.182 6.182 0 0 0-.109-6.477L77.48 16.673A8.6 8.6 0 0 0 70 12.976zm0 82.552a6.371 6.371 0 1 1 6.363-6.368A6.373 6.373 0 0 1 70 95.529zm0-19.109a6.373 6.373 0 0 1-6.363-6.368V44.58a6.363 6.363 0 1 1 12.726 0v25.472A6.373 6.373 0 0 1 70 76.419z" class="cls-1"/>
    </g>
</svg>
