<svg xmlns="http://www.w3.org/2000/svg" id="_27_Icon_close" width="24" height="24" viewBox="0 0 24 24">
    <defs>
        <clipPath id="clip-path">
            <path id="_Icon_Сolor" fill="#596776" d="M7.414 6l4.293-4.293A1 1 0 1 0 10.293.293L6 4.586 1.707.293A1 1 0 0 0 .293 1.707L4.586 6 .293 10.293a1 1 0 1 0 1.414 1.414L6 7.414l4.293 4.293a1 1 0 0 0 1.414-1.414z"/>
        </clipPath>
        <style>
        </style>
    </defs>
    <g id="Group_16" transform="translate(6 6)">
        <path id="_Icon_Сolor-2" fill="#f2f2f2" d="M7.414 6l4.293-4.293A1 1 0 1 0 10.293.293L6 4.586 1.707.293A1 1 0 0 0 .293 1.707L4.586 6 .293 10.293a1 1 0 1 0 1.414 1.414L6 7.414l4.293 4.293a1 1 0 0 0 1.414-1.414z"/>
    </g>
</svg>
